<svg width="158" height="147" viewBox="0 0 158 147" fill="none" xmlns="http://www.w3.org/2000/svg">
<path d="M79.1146 146.278L1.07669 101.162L1.00002 44.7602L77.3265 1.05719L95.2897 8.89585L113.353 19.4221L135.612 32.2649L157.203 44.9015V101.137L79.1146 146.278Z" fill="#FBC42A"/>
<path d="M96.3165 11.0878C96.3165 16.4019 88.3283 20.7348 79.117 20.7348C69.9057 20.7348 61.9879 16.0908 61.9879 10.7766C61.9879 5.46242 69.922 1 79.1332 1C88.3445 1 96.3165 5.77359 96.3165 11.0878Z" fill="#FBC42A"/>
<path d="M56.9436 33.1585C56.9436 38.4727 49.4431 43.1748 40.2319 43.1748C31.0206 43.1748 22.8585 37.9131 22.8585 32.599C24.0668 27.6219 30.8782 23.6943 40.2651 23.5363C49.4764 23.5363 56.9436 27.8443 56.9436 33.1585Z" fill="#FBC42A"/>
<path d="M96.411 10.9838L96.3186 12.0076L96.0415 13.0237L95.595 14.0014L94.9946 14.9405L94.2479 15.8103L93.3781 16.6263L92.4081 17.3653L91.3612 18.0196L90.2143 18.6277L88.9365 19.1896L87.5355 19.69L86.0113 20.121L84.3948 20.4675L82.7013 20.7292L80.9462 20.8831L79.1603 20.937L77.3821 20.8831L75.6271 20.7292L73.9335 20.4675L72.317 20.121L70.7929 19.69L69.3919 19.1896L68.114 18.6277L66.9671 18.0196L65.9202 17.3653L64.9503 16.6263L64.0804 15.8103L63.3337 14.9405L62.7333 14.0014L62.2792 13.0237L62.0097 12.0076L61.9174 10.9838" fill="#FBC42A"/>
<path d="M96.411 10.9838L96.3186 12.0076L96.0415 13.0237L95.595 14.0014L94.9946 14.9405L94.2479 15.8103L93.3781 16.6263L92.4081 17.3653L91.3612 18.0196L90.2143 18.6277L88.9365 19.1896L87.5355 19.69L86.0113 20.121L84.3948 20.4675L82.7013 20.7292L80.9462 20.8831L79.1603 20.937L77.3821 20.8831L75.6271 20.7292L73.9335 20.4675L72.317 20.121L70.7929 19.69L69.3919 19.1896L68.114 18.6277L66.9671 18.0196L65.9202 17.3653L64.9503 16.6263L64.0804 15.8103L63.3337 14.9405L62.7333 14.0014L62.2792 13.0237L62.0097 12.0076L61.9174 10.9838" stroke="black" stroke-width="0.6" stroke-linecap="round" stroke-linejoin="round"/>
<path d="M1.11401 44.7773L79.1615 89.84" stroke="black" stroke-width="0.6" stroke-linecap="round" stroke-linejoin="round"/>
<path d="M1.11401 101.109L79.1615 146.172V115.05V91.1481V89.8395" fill="#FBC42A"/>
<path d="M1.11401 101.109L79.1615 146.172V115.05V91.1481V89.8395" stroke="black" stroke-width="0.6" stroke-linecap="round" stroke-linejoin="round"/>
<path d="M79.1605 89.8392L157.11 44.8375" stroke="black" stroke-width="0.6" stroke-linecap="round" stroke-linejoin="round"/>
<path d="M96.411 22.2451L96.3186 23.2766L96.0415 24.285L95.595 25.2703L94.9946 26.2017L94.2479 27.0793L93.3781 27.8876L92.4081 28.6266L91.3612 29.2886L90.2143 29.889L88.9365 30.4509L87.5355 30.9513L86.0113 31.3823L84.3948 31.7364L82.7013 31.9905L80.9462 32.1521L79.1603 32.206L77.3821 32.1521L75.6271 31.9905L73.9335 31.7364L72.317 31.3823L70.7929 30.9513L69.3919 30.4509L68.114 29.889L66.9671 29.2886L65.9202 28.6266L64.9503 27.8876L64.0804 27.0793L63.3337 26.2017L62.7333 25.2703L62.2792 24.285L62.0097 23.2766L61.9174 22.2451" fill="#FBC42A"/>
<path d="M96.411 22.2451L96.3186 23.2766L96.0415 24.285L95.595 25.2703L94.9946 26.2017L94.2479 27.0793L93.3781 27.8876L92.4081 28.6266L91.3612 29.2886L90.2143 29.889L88.9365 30.4509L87.5355 30.9513L86.0113 31.3823L84.3948 31.7364L82.7013 31.9905L80.9462 32.1521L79.1603 32.206L77.3821 32.1521L75.6271 31.9905L73.9335 31.7364L72.317 31.3823L70.7929 30.9513L69.3919 30.4509L68.114 29.889L66.9671 29.2886L65.9202 28.6266L64.9503 27.8876L64.0804 27.0793L63.3337 26.2017L62.7333 25.2703L62.2792 24.285L62.0097 23.2766L61.9174 22.2451" stroke="black" stroke-width="0.6" stroke-linecap="round" stroke-linejoin="round"/>
<path d="M135.438 33.5153L135.346 34.5391L135.069 35.5552L134.622 36.5328L134.014 37.4719L133.267 38.3494L132.398 39.1577L131.428 39.8967L130.381 40.551L129.241 41.1591L127.964 41.7211L126.555 42.2214L125.039 42.6525L123.422 42.9989L121.721 43.2606L119.973 43.4146L118.188 43.4685L116.409 43.4146L114.654 43.2606L112.961 42.9989L111.337 42.6525L109.82 42.2214L108.419 41.7211L107.141 41.1591L105.994 40.551L104.947 39.8967L103.977 39.1577L103.108 38.3494L102.361 37.4719L101.753 36.5328L101.306 35.5552L101.037 34.5391L100.945 33.5153" fill="#FBC42A"/>
<path d="M135.438 33.5153L135.346 34.5391L135.069 35.5552L134.622 36.5328L134.014 37.4719L133.267 38.3494L132.398 39.1577L131.428 39.8967L130.381 40.551L129.241 41.1591L127.964 41.7211L126.555 42.2214L125.039 42.6525L123.422 42.9989L121.721 43.2606L119.973 43.4146L118.188 43.4685L116.409 43.4146L114.654 43.2606L112.961 42.9989L111.337 42.6525L109.82 42.2214L108.419 41.7211L107.141 41.1591L105.994 40.551L104.947 39.8967L103.977 39.1577L103.108 38.3494L102.361 37.4719L101.753 36.5328L101.306 35.5552L101.037 34.5391L100.945 33.5153" stroke="black" stroke-width="0.6" stroke-linecap="round" stroke-linejoin="round"/>
<path d="M135.438 44.7773L135.346 45.8088L135.069 46.8172L134.622 47.8026L134.014 48.734L133.267 49.6115L132.398 50.4198L131.428 51.1588L130.381 51.8208L129.241 52.4212L127.964 52.9831L126.555 53.4835L125.039 53.9146L123.422 54.2687L121.721 54.5227L119.973 54.6843L118.188 54.7382L116.409 54.6843L114.654 54.5227L112.961 54.2687L111.337 53.9146L109.82 53.4835L108.419 52.9831L107.141 52.4212L105.994 51.8208L104.947 51.1588L103.977 50.4198L103.108 49.6115L102.361 48.734L101.753 47.8026L101.306 46.8172L101.037 45.8088L100.945 44.7773" fill="#FBC42A"/>
<path d="M135.438 44.7773L135.346 45.8088L135.069 46.8172L134.622 47.8026L134.014 48.734L133.267 49.6115L132.398 50.4198L131.428 51.1588L130.381 51.8208L129.241 52.4212L127.964 52.9831L126.555 53.4835L125.039 53.9146L123.422 54.2687L121.721 54.5227L119.973 54.6843L118.188 54.7382L116.409 54.6843L114.654 54.5227L112.961 54.2687L111.337 53.9146L109.82 53.4835L108.419 52.9831L107.141 52.4212L105.994 51.8208L104.947 51.1588L103.977 50.4198L103.108 49.6115L102.361 48.734L101.753 47.8026L101.306 46.8172L101.037 45.8088L100.945 44.7773" stroke="black" stroke-width="0.6" stroke-linecap="round" stroke-linejoin="round"/>
<path d="M96.411 56.0465L96.3186 57.0703L96.0415 58.0864L95.595 59.064L94.9946 60.0031L94.2479 60.8807L93.3781 61.6889L92.4081 62.4279L91.3612 63.0899L90.2143 63.6904L88.9365 64.2523L87.5355 64.7527L86.0113 65.1837L84.3948 65.5301L82.7013 65.7919L80.9462 65.9458L79.1603 65.9997L77.3821 65.9458L75.6271 65.7919L73.9335 65.5301L72.317 65.1837L70.7929 64.7527L69.3919 64.2523L68.114 63.6904L66.9671 63.0899L65.9202 62.4279L64.9503 61.6889L64.0804 60.8807L63.3337 60.0031L62.7333 59.064L62.2792 58.0864L62.0097 57.0703L61.9174 56.0465" stroke="black" stroke-width="0.6" stroke-linecap="round" stroke-linejoin="round"/>
<path d="M96.411 67.308L96.3186 68.3395L96.0415 69.3479L95.595 70.3333L94.9946 71.2647L94.2479 72.1422L93.3781 72.9505L92.4081 73.6895L91.3612 74.3515L90.2143 74.9596L88.9365 75.5138L87.5355 76.0142L86.0113 76.4453L84.3948 76.7994L82.7013 77.0534L80.9462 77.215L79.1603 77.2689L77.3821 77.215L75.6271 77.0534L73.9335 76.7994L72.317 76.4453L70.7929 76.0142L69.3919 75.5138L68.114 74.9596L66.9671 74.3515L65.9202 73.6895L64.9503 72.9505L64.0804 72.1422L63.3337 71.2647L62.7333 70.3333L62.2792 69.3479L62.0097 68.3395L61.9174 67.308" fill="#FBC42A"/>
<path d="M96.411 67.308L96.3186 68.3395L96.0415 69.3479L95.595 70.3333L94.9946 71.2647L94.2479 72.1422L93.3781 72.9505L92.4081 73.6895L91.3612 74.3515L90.2143 74.9596L88.9365 75.5138L87.5355 76.0142L86.0113 76.4453L84.3948 76.7994L82.7013 77.0534L80.9462 77.215L79.1603 77.2689L77.3821 77.215L75.6271 77.0534L73.9335 76.7994L72.317 76.4453L70.7929 76.0142L69.3919 75.5138L68.114 74.9596L66.9671 74.3515L65.9202 73.6895L64.9503 72.9505L64.0804 72.1422L63.3337 71.2647L62.7333 70.3333L62.2792 69.3479L62.0097 68.3395L61.9174 67.308" stroke="black" stroke-width="0.6" stroke-linecap="round" stroke-linejoin="round"/>
<path d="M57.3837 33.5153L57.2914 34.5391L57.0219 35.5552L56.5755 36.5328L55.9674 37.4719L55.2207 38.3494L54.3508 39.1577L53.3809 39.8967L52.334 40.551L51.1871 41.1591L49.9092 41.7211L48.5082 42.2214L46.9918 42.6525L45.3676 42.9989L43.6741 43.2606L41.919 43.4146L40.1408 43.4685L38.3549 43.4146L36.6075 43.2606L34.9063 42.9989L33.2898 42.6525L31.7733 42.2214L30.3646 41.7211L29.0868 41.1591L27.9399 40.551L26.893 39.8967L25.9307 39.1577L25.0609 38.3494L24.3142 37.4719L23.7061 36.5328L23.2596 35.5552L22.9825 34.5391L22.8901 33.5153" fill="#FBC42A"/>
<path d="M57.3837 33.5153L57.2914 34.5391L57.0219 35.5552L56.5755 36.5328L55.9674 37.4719L55.2207 38.3494L54.3508 39.1577L53.3809 39.8967L52.334 40.551L51.1871 41.1591L49.9092 41.7211L48.5082 42.2214L46.9918 42.6525L45.3676 42.9989L43.6741 43.2606L41.919 43.4146L40.1408 43.4685L38.3549 43.4146L36.6075 43.2606L34.9063 42.9989L33.2898 42.6525L31.7733 42.2214L30.3646 41.7211L29.0868 41.1591L27.9399 40.551L26.893 39.8967L25.9307 39.1577L25.0609 38.3494L24.3142 37.4719L23.7061 36.5328L23.2596 35.5552L22.9825 34.5391L22.8901 33.5153" stroke="black" stroke-width="0.6" stroke-linecap="round" stroke-linejoin="round"/>
<path d="M57.3837 44.7773L57.2914 45.8088L57.0219 46.8172L56.5755 47.8026L55.9674 48.734L55.2207 49.6115L54.3508 50.4198L53.3809 51.1588L52.334 51.8208L51.1871 52.4212L49.9092 52.9831L48.5082 53.4835L46.9918 53.9146L45.3676 54.2687L43.6741 54.5227L41.919 54.6843L40.1408 54.7382L38.3549 54.6843L36.6075 54.5227L34.9063 54.2687L33.2898 53.9146L31.7733 53.4835L30.3646 52.9831L29.0868 52.4212L27.9399 51.8208L26.893 51.1588L25.9307 50.4198L25.0609 49.6115L24.3142 48.734L23.7061 47.8026L23.2596 46.8172L22.9825 45.8088L22.8901 44.7773" fill="#FBC42A"/>
<path d="M57.3837 44.7773L57.2914 45.8088L57.0219 46.8172L56.5755 47.8026L55.9674 48.734L55.2207 49.6115L54.3508 50.4198L53.3809 51.1588L52.334 51.8208L51.1871 52.4212L49.9092 52.9831L48.5082 53.4835L46.9918 53.9146L45.3676 54.2687L43.6741 54.5227L41.919 54.6843L40.1408 54.7382L38.3549 54.6843L36.6075 54.5227L34.9063 54.2687L33.2898 53.9146L31.7733 53.4835L30.3646 52.9831L29.0868 52.4212L27.9399 51.8208L26.893 51.1588L25.9307 50.4198L25.0609 49.6115L24.3142 48.734L23.7061 47.8026L23.2596 46.8172L22.9825 45.8088L22.8901 44.7773" stroke="black" stroke-width="0.6" stroke-linecap="round" stroke-linejoin="round"/>
<path d="M22.8901 33.5153V44.7759" stroke="black" stroke-width="0.6" stroke-linecap="round" stroke-linejoin="round"/>
<path d="M96.411 67.3082V61.6811V56.0464L96.3186 55.0149L96.0415 54.0065L95.595 53.0212L94.9946 52.0897L94.2479 51.2122L93.3781 50.4039L92.4081 49.665L91.3612 49.0029L90.2143 48.4025L88.9365 47.8406L87.5355 47.3402L86.0113 46.9092L84.3948 46.5551L82.7013 46.301L80.9462 46.1394L79.1603 46.0855L77.3821 46.1394L75.6271 46.301L73.9335 46.5551L72.317 46.9092L70.7929 47.3402L69.3919 47.8406L68.114 48.4025L66.9671 49.0029L65.9202 49.665L64.9503 50.4039L64.0804 51.2122L63.3337 52.0897L62.7333 53.0212L62.2792 54.0065L62.0097 55.0149L61.9174 56.0464V61.6811V67.3082" stroke="black" stroke-width="0.6" stroke-linecap="round" stroke-linejoin="round"/>
<path d="M135.438 44.7775V39.1505V33.5157L135.346 32.4842L135.069 31.4758L134.622 30.4905L134.014 29.5591L133.267 28.6815L132.398 27.8733L131.428 27.1343L130.381 26.4723L129.241 25.8718L127.964 25.3099L126.555 24.8095L125.039 24.3785L123.422 24.0244L121.721 23.7703L119.973 23.6087L118.188 23.5548L116.409 23.6087L114.654 23.7703L112.961 24.0244L111.337 24.3785L109.82 24.8095L108.419 25.3099L107.141 25.8718L105.994 26.4723L104.947 27.1343L103.977 27.8733L103.108 28.6815L102.361 29.5591L101.753 30.4905L101.306 31.4758L101.037 32.4842L100.945 33.5157V39.1505V44.7775" fill="#FBC42A"/>
<path d="M135.438 44.7775V39.1505V33.5157L135.346 32.4842L135.069 31.4758L134.622 30.4905L134.014 29.5591L133.267 28.6815L132.398 27.8733L131.428 27.1343L130.381 26.4723L129.241 25.8718L127.964 25.3099L126.555 24.8095L125.039 24.3785L123.422 24.0244L121.721 23.7703L119.973 23.6087L118.188 23.5548L116.409 23.6087L114.654 23.7703L112.961 24.0244L111.337 24.3785L109.82 24.8095L108.419 25.3099L107.141 25.8718L105.994 26.4723L104.947 27.1343L103.977 27.8733L103.108 28.6815L102.361 29.5591L101.753 30.4905L101.306 31.4758L101.037 32.4842L100.945 33.5157V39.1505V44.7775" stroke="black" stroke-width="0.6" stroke-linecap="round" stroke-linejoin="round"/>
<path d="M96.411 22.2465V10.9847L96.3186 9.9532L96.0415 8.94479L95.595 7.95948L94.9946 7.02804L94.2479 6.15051L93.3781 5.34225L92.4081 4.60325L91.3612 3.94126L90.2143 3.34083L88.9365 2.77889L87.5355 2.27854L86.0113 1.84747L84.3948 1.49338L82.7013 1.23934L80.9462 1.07769L79.1603 1.0238L77.3821 1.07769L75.6271 1.23934L73.9335 1.49338L72.317 1.84747L70.7929 2.27854L69.3919 2.77889L68.114 3.34083L66.9671 3.94126L65.9202 4.60325L64.9503 5.34225L64.0804 6.15051L63.3337 7.02804L62.7333 7.95948L62.2792 8.94479L62.0097 9.9532L61.9174 10.9847V22.2465" stroke="black" stroke-width="0.6" stroke-linecap="round" stroke-linejoin="round"/>
<path d="M37.6782 23.6702L62.1186 9.56018" stroke="black" stroke-width="0.6" stroke-linecap="round" stroke-linejoin="round"/>
<path d="M1.11401 101.109V44.7772L23.0911 32.0914" stroke="black" stroke-width="0.6" stroke-linecap="round" stroke-linejoin="round"/>
<path d="M57.3837 44.7775V33.5157L57.2914 32.4842L57.0219 31.4758L56.5755 30.4905L55.9674 29.5591L55.2207 28.6815L54.3508 27.8733L53.3809 27.1343L52.334 26.4723L51.1871 25.8718L49.9092 25.3099L48.5082 24.8095L46.9918 24.3785L45.3676 24.0244L43.6741 23.7703L41.919 23.6087L40.1408 23.5548L38.3549 23.6087L36.6075 23.7703L34.9063 24.0244L33.2898 24.3785L31.7733 24.8095L30.3646 25.3099L29.0868 25.8718L27.9399 26.4723L26.893 27.1343L25.9307 27.8733L25.0609 28.6815L24.3142 29.5591L23.7061 30.4905L23.2596 31.4758L22.9825 32.4842L22.8901 33.5157" stroke="black" stroke-width="0.6" stroke-linecap="round" stroke-linejoin="round"/>
<path d="M135.418 44.7272L135.326 45.7587L135.057 46.7671L134.61 47.7524L134.002 48.6838L133.255 49.5614L132.385 50.3696L131.416 51.1086L130.369 51.7706L129.222 52.371L127.944 52.933L126.543 53.4333L125.026 53.8644L123.41 54.2185L121.709 54.4725L119.954 54.6342L118.175 54.6881L116.397 54.6342L114.642 54.4725L112.941 54.2185L111.324 53.8644L109.808 53.4333L108.399 52.933L107.121 52.371L105.982 51.7706L104.935 51.1086L103.965 50.3696L103.096 49.5614L102.349 48.6838L101.741 47.7524L101.294 46.7671L101.017 45.7587L100.925 44.7272" fill="#FBC42A"/>
<path d="M135.418 44.7272L135.326 45.7587L135.057 46.7671L134.61 47.7524L134.002 48.6838L133.255 49.5614L132.385 50.3696L131.416 51.1086L130.369 51.7706L129.222 52.371L127.944 52.933L126.543 53.4333L125.026 53.8644L123.41 54.2185L121.709 54.4725L119.954 54.6342L118.175 54.6881L116.397 54.6342L114.642 54.4725L112.941 54.2185L111.324 53.8644L109.808 53.4333L108.399 52.933L107.121 52.371L105.982 51.7706L104.935 51.1086L103.965 50.3696L103.096 49.5614L102.349 48.6838L101.741 47.7524L101.294 46.7671L101.017 45.7587L100.925 44.7272" stroke="black" stroke-width="0.6" stroke-linecap="round" stroke-linejoin="round"/>
<path d="M135.418 44.7279V33.4661L135.326 32.4346L135.057 31.4262L134.61 30.4409L134.002 29.5094L133.255 28.6319L132.385 27.8236L131.416 27.0846L130.369 26.4226L129.222 25.8222L127.944 25.2603L126.543 24.7599L125.026 24.3289L123.41 23.9748L121.709 23.7207L119.954 23.5591L118.175 23.5052L116.397 23.5591L114.642 23.7207L112.941 23.9748L111.324 24.3289L109.808 24.7599L108.399 25.2603L107.121 25.8222L105.982 26.4226L104.935 27.0846L103.965 27.8236L103.096 28.6319L102.349 29.5094L101.741 30.4409L101.294 31.4262L101.017 32.4346L100.925 33.4661V44.7279" stroke="black" stroke-width="0.6" stroke-linecap="round" stroke-linejoin="round"/>
<path d="M135.227 32.1061L157.204 44.792V101.124L79.1802 146.171" stroke="black" stroke-width="0.6" stroke-linecap="round" stroke-linejoin="round"/>
<path d="M96.1993 9.5108L120.64 23.6208" stroke="black" stroke-width="0.6" stroke-linecap="round" stroke-linejoin="round"/>
<path d="M135.494 34L135.401 35.0238L135.124 36.0399L134.678 37.0175L134.077 37.9566L133.331 38.8342L132.461 39.6424L131.491 40.3814L130.444 41.0434L129.297 41.6439L128.019 42.2058L126.618 42.7062L125.094 43.1372L123.477 43.4836L121.784 43.7454L120.029 43.8993L118.243 43.9532L116.465 43.8993L114.71 43.7454L113.016 43.4836L111.4 43.1372L109.876 42.7062L108.475 42.2058L107.197 41.6439L106.05 41.0434L105.003 40.3814L104.033 39.6424L103.163 38.8342L102.416 37.9566L101.816 37.0175L101.362 36.0399L101.092 35.0238L101 34" stroke="black" stroke-width="0.6" stroke-linecap="round" stroke-linejoin="round"/>
</svg>
