<svg width="158" height="147" viewBox="0 0 158 147" fill="none" xmlns="http://www.w3.org/2000/svg">
<path d="M79.1809 146.401L1.07676 101.247L1.00002 44.7973L77.3914 1.05711L95.3698 8.90244L113.448 19.4377L135.727 32.2914L157.336 44.9387V101.222L79.1809 146.401Z" fill="#E34100"/>
<path d="M96.3975 11.0962C96.3975 16.4149 88.4025 20.7514 79.1834 20.7514C69.9643 20.7514 62.0398 16.1035 62.0398 10.7848C62.0398 5.46609 69.9806 0.999878 79.1997 0.999878C88.4187 0.999878 96.3975 5.77753 96.3975 11.0962Z" fill="#E34100"/>
<path d="M56.9911 33.1857C56.9911 38.5044 49.4843 43.2106 40.2652 43.2106C31.0461 43.2106 22.8771 37.9444 22.8771 32.6257C24.0864 27.6445 30.9036 23.7135 40.2985 23.5554C49.5176 23.5554 56.9911 27.867 56.9911 33.1857Z" fill="#E34100"/>
<path d="M96.4919 10.9922L96.3995 12.0168L96.1221 13.0338L95.6753 14.0123L95.0743 14.9522L94.327 15.8228L93.4564 16.6394L92.4857 17.3791L91.4379 18.0339L90.29 18.6425L89.0111 19.205L87.6089 19.7057L86.0834 20.1372L84.4655 20.4839L82.7706 20.7458L81.014 20.8999L79.2266 20.9538L77.4469 20.8999L75.6903 20.7458L73.9954 20.4839L72.3775 20.1372L70.852 19.7057L69.4499 19.205L68.171 18.6425L67.023 18.0339L65.9752 17.3791L65.0045 16.6394L64.1339 15.8228L63.3866 14.9522L62.7857 14.0123L62.3311 13.0338L62.0614 12.0168L61.969 10.9922" stroke="black" stroke-width="0.5" stroke-linecap="round" stroke-linejoin="round"/>
<path d="M1.11377 44.8144L79.2276 89.9153" stroke="black" stroke-width="0.5" stroke-linecap="round" stroke-linejoin="round"/>
<path d="M1.11377 101.194L79.2276 146.295V115.147V91.2249V89.9152" stroke="black" stroke-width="0.5" stroke-linecap="round" stroke-linejoin="round"/>
<path d="M79.2268 89.9145L157.243 44.8746" stroke="black" stroke-width="0.5" stroke-linecap="round" stroke-linejoin="round"/>
<path d="M96.4919 22.2632L96.3995 23.2956L96.1221 24.3049L95.6753 25.291L95.0743 26.2232L94.327 27.1015L93.4564 27.9105L92.4857 28.6501L91.4379 29.3127L90.29 29.9136L89.0111 30.476L87.6089 30.9768L86.0834 31.4082L84.4655 31.7626L82.7706 32.0169L81.014 32.1787L79.2266 32.2326L77.4469 32.1787L75.6903 32.0169L73.9954 31.7626L72.3775 31.4082L70.852 30.9768L69.4499 30.476L68.171 29.9136L67.023 29.3127L65.9752 28.6501L65.0045 27.9105L64.1339 27.1015L63.3866 26.2232L62.7857 25.291L62.3311 24.3049L62.0614 23.2956L61.969 22.2632" stroke="black" stroke-width="0.5" stroke-linecap="round" stroke-linejoin="round"/>
<path d="M135.553 33.5428L135.46 34.5675L135.183 35.5844L134.736 36.5629L134.128 37.5028L133.38 38.3811L132.51 39.19L131.539 39.9296L130.491 40.5845L129.351 41.1932L128.072 41.7556L126.662 42.2563L125.144 42.6878L123.526 43.0345L121.824 43.2964L120.075 43.4505L118.288 43.5045L116.508 43.4505L114.751 43.2964L113.056 43.0345L111.431 42.6878L109.913 42.2563L108.511 41.7556L107.232 41.1932L106.084 40.5845L105.036 39.9296L104.065 39.19L103.195 38.3811L102.447 37.5028L101.839 36.5629L101.392 35.5844L101.122 34.5675L101.03 33.5428" stroke="black" stroke-width="0.5" stroke-linecap="round" stroke-linejoin="round"/>
<path d="M135.553 44.8144L135.46 45.8468L135.183 46.856L134.736 47.8422L134.128 48.7744L133.38 49.6527L132.51 50.4616L131.539 51.2013L130.491 51.8638L129.351 52.4647L128.072 53.0272L126.662 53.5279L125.144 53.9594L123.526 54.3138L121.824 54.568L120.075 54.7298L118.288 54.7837L116.508 54.7298L114.751 54.568L113.056 54.3138L111.431 53.9594L109.913 53.5279L108.511 53.0272L107.232 52.4647L106.084 51.8638L105.036 51.2013L104.065 50.4616L103.195 49.6527L102.447 48.7744L101.839 47.8422L101.392 46.856L101.122 45.8468L101.03 44.8144" stroke="black" stroke-width="0.5" stroke-linecap="round" stroke-linejoin="round"/>
<path d="M96.4919 56.0931L96.3995 57.1178L96.1221 58.1348L95.6753 59.1132L95.0743 60.0531L94.327 60.9314L93.4564 61.7404L92.4857 62.48L91.4379 63.1426L90.29 63.7435L89.0111 64.3059L87.6089 64.8067L86.0834 65.2381L84.4655 65.5848L82.7706 65.8468L81.014 66.0008L79.2266 66.0548L77.4469 66.0008L75.6903 65.8468L73.9954 65.5848L72.3775 65.2381L70.852 64.8067L69.4499 64.3059L68.171 63.7435L67.023 63.1426L65.9752 62.48L65.0045 61.7404L64.1339 60.9314L63.3866 60.0531L62.7857 59.1132L62.3311 58.1348L62.0614 57.1178L61.969 56.0931" stroke="black" stroke-width="0.5" stroke-linecap="round" stroke-linejoin="round"/>
<path d="M96.4919 67.3643L96.3995 68.3966L96.1221 69.4059L95.6753 70.392L95.0743 71.3243L94.327 72.2026L93.4564 73.0115L92.4857 73.7511L91.4379 74.4137L90.29 75.0223L89.0111 75.577L87.6089 76.0778L86.0834 76.5092L84.4655 76.8636L82.7706 77.1179L81.014 77.2797L79.2266 77.3336L77.4469 77.2797L75.6903 77.1179L73.9954 76.8636L72.3775 76.5092L70.852 76.0778L69.4499 75.577L68.171 75.0223L67.023 74.4137L65.9752 73.7511L65.0045 73.0115L64.1339 72.2026L63.3866 71.3243L62.7857 70.392L62.3311 69.4059L62.0614 68.3966L61.969 67.3643" stroke="black" stroke-width="0.5" stroke-linecap="round" stroke-linejoin="round"/>
<path d="M57.4311 33.5428L57.3387 34.5675L57.069 35.5844L56.6222 36.5629L56.0135 37.5028L55.2662 38.3811L54.3956 39.19L53.4249 39.9296L52.3771 40.5845L51.2292 41.1932L49.9503 41.7556L48.5481 42.2563L47.0303 42.6878L45.4047 43.0345L43.7098 43.2964L41.9532 43.4505L40.1735 43.5045L38.3861 43.4505L36.6373 43.2964L34.9346 43.0345L33.3167 42.6878L31.799 42.2563L30.3891 41.7556L29.1102 41.1932L27.9622 40.5845L26.9144 39.9296L25.9514 39.19L25.0808 38.3811L24.3335 37.5028L23.7249 36.5629L23.278 35.5844L23.0007 34.5675L22.9082 33.5428" stroke="black" stroke-width="0.5" stroke-linecap="round" stroke-linejoin="round"/>
<path d="M57.4311 44.8144L57.3387 45.8468L57.069 46.856L56.6222 47.8422L56.0135 48.7744L55.2662 49.6527L54.3956 50.4616L53.4249 51.2013L52.3771 51.8638L51.2292 52.4647L49.9503 53.0272L48.5481 53.5279L47.0303 53.9594L45.4047 54.3138L43.7098 54.568L41.9532 54.7298L40.1735 54.7837L38.3861 54.7298L36.6373 54.568L34.9346 54.3138L33.3167 53.9594L31.799 53.5279L30.3891 53.0272L29.1102 52.4647L27.9622 51.8638L26.9144 51.2013L25.9514 50.4616L25.0808 49.6527L24.3335 48.7744L23.7249 47.8422L23.278 46.856L23.0007 45.8468L22.9082 44.8144" stroke="black" stroke-width="0.5" stroke-linecap="round" stroke-linejoin="round"/>
<path d="M22.9082 33.5428V44.813" stroke="black" stroke-width="0.5" stroke-linecap="round" stroke-linejoin="round"/>
<path d="M96.4919 67.3645V61.7327V56.0931L96.3995 55.0608L96.1221 54.0515L95.6753 53.0653L95.0743 52.1331L94.327 51.2548L93.4564 50.4459L92.4857 49.7063L91.4379 49.0437L90.29 48.4428L89.0111 47.8804L87.6089 47.3796L86.0834 46.9481L84.4655 46.5937L82.7706 46.3395L81.014 46.1777L79.2266 46.1238L77.4469 46.1777L75.6903 46.3395L73.9954 46.5937L72.3775 46.9481L70.852 47.3796L69.4499 47.8804L68.171 48.4428L67.023 49.0437L65.9752 49.7063L65.0045 50.4459L64.1339 51.2548L63.3866 52.1331L62.7857 53.0653L62.3311 54.0515L62.0614 55.0608L61.969 56.0931V61.7327V67.3645" stroke="black" stroke-width="0.5" stroke-linecap="round" stroke-linejoin="round"/>
<path d="M135.553 44.8146V39.1828V33.5433L135.46 32.5109L135.183 31.5016L134.736 30.5155L134.128 29.5833L133.38 28.705L132.51 27.896L131.539 27.1564L130.491 26.4938L129.351 25.8929L128.072 25.3305L126.662 24.8297L125.144 24.3983L123.526 24.0439L121.824 23.7896L120.075 23.6278L118.288 23.5739L116.508 23.6278L114.751 23.7896L113.056 24.0439L111.431 24.3983L109.913 24.8297L108.511 25.3305L107.232 25.8929L106.084 26.4938L105.036 27.1564L104.065 27.896L103.195 28.705L102.447 29.5833L101.839 30.5155L101.392 31.5016L101.122 32.5109L101.03 33.5433V39.1828V44.8146" stroke="black" stroke-width="0.5" stroke-linecap="round" stroke-linejoin="round"/>
<path d="M135.481 33.3199C135.481 38.6386 127.455 42.9503 118.235 42.9503C109.016 42.9503 101.543 38.6386 101.543 33.3199C101.543 28.0012 108.966 23.551 118.185 23.551C127.404 23.551 135.481 28.0012 135.481 33.3199Z" fill="#E34100"/>
<path d="M96.4919 22.2645V10.9931L96.3995 9.96072L96.1221 8.95146L95.6753 7.96532L95.0743 7.03308L94.327 6.1548L93.4564 5.34586L92.4857 4.60623L91.4379 3.94368L90.29 3.34274L89.0111 2.78032L87.6089 2.27955L86.0834 1.84811L84.4655 1.49372L82.7706 1.23946L81.014 1.07768L79.2266 1.02374L77.4469 1.07768L75.6903 1.23946L73.9954 1.49372L72.3775 1.84811L70.852 2.27955L69.4499 2.78032L68.171 3.34274L67.023 3.94368L65.9752 4.60623L65.0045 5.34586L64.1339 6.1548L63.3866 7.03308L62.7857 7.96532L62.3311 8.95146L62.0614 9.96072L61.969 10.9931V22.2645" stroke="black" stroke-width="0.5" stroke-linecap="round" stroke-linejoin="round"/>
<path d="M37.7091 23.6895L62.1702 9.5675" stroke="black" stroke-width="0.5" stroke-linecap="round" stroke-linejoin="round"/>
<path d="M1.11377 101.195V44.8146L23.1095 32.1179" stroke="black" stroke-width="0.5" stroke-linecap="round" stroke-linejoin="round"/>
<path d="M57.4311 44.8146V33.5433L57.3387 32.5109L57.069 31.5016L56.6222 30.5155L56.0135 29.5833L55.2662 28.705L54.3956 27.896L53.4249 27.1564L52.3771 26.4938L51.2292 25.8929L49.9503 25.3305L48.5481 24.8297L47.0303 24.3983L45.4047 24.0439L43.7098 23.7896L41.9532 23.6278L40.1735 23.5739L38.3861 23.6278L36.6373 23.7896L34.9346 24.0439L33.3167 24.3983L31.799 24.8297L30.3891 25.3305L29.1102 25.8929L27.9622 26.4938L26.9144 27.1564L25.9514 27.896L25.0808 28.705L24.3335 29.5833L23.7249 30.5155L23.278 31.5016L23.0007 32.5109L22.9082 33.5433" stroke="black" stroke-width="0.5" stroke-linecap="round" stroke-linejoin="round"/>
<path d="M135.533 44.7642L135.44 45.7966L135.17 46.8059L134.724 47.792L134.115 48.7242L133.368 49.6025L132.497 50.4115L131.526 51.1511L130.479 51.8136L129.331 52.4146L128.052 52.977L126.65 53.4778L125.132 53.9092L123.514 54.2636L121.811 54.5179L120.055 54.6796L118.275 54.7336L116.495 54.6796L114.739 54.5179L113.036 54.2636L111.418 53.9092L109.9 53.4778L108.491 52.977L107.212 52.4146L106.071 51.8136L105.024 51.1511L104.053 50.4115L103.182 49.6025L102.435 48.7242L101.826 47.792L101.379 46.8059L101.102 45.7966L101.01 44.7642" stroke="black" stroke-width="0.5" stroke-linecap="round" stroke-linejoin="round"/>
<path d="M135.533 44.765V33.4936L135.44 32.4612L135.17 31.452L134.724 30.4658L134.115 29.5336L133.368 28.6553L132.497 27.8463L131.526 27.1067L130.479 26.4442L129.331 25.8432L128.052 25.2808L126.65 24.78L125.132 24.3486L123.514 23.9942L121.811 23.74L120.055 23.5782L118.275 23.5242L116.495 23.5782L114.739 23.74L113.036 23.9942L111.418 24.3486L109.9 24.78L108.491 25.2808L107.212 25.8432L106.071 26.4442L105.024 27.1067L104.053 27.8463L103.182 28.6553L102.435 29.5336L101.826 30.4658L101.379 31.452L101.102 32.4612L101.01 33.4936V44.765" stroke="black" stroke-width="0.5" stroke-linecap="round" stroke-linejoin="round"/>
<path d="M135.34 32.1326L157.336 44.8293V101.209L79.2461 146.295" stroke="black" stroke-width="0.5" stroke-linecap="round" stroke-linejoin="round"/>
<path d="M96.2802 9.51788L120.741 23.6398" stroke="black" stroke-width="0.5" stroke-linecap="round" stroke-linejoin="round"/>
</svg>
