<svg width="170" height="77" viewBox="0 0 170 77" fill="none" xmlns="http://www.w3.org/2000/svg">
<path d="M42 7C42 7.55228 42.4477 8 43 8H47C47.5523 8 48 7.55228 48 7V1C48 0.447715 48.4477 0 49 0H81C81.5523 0 82 0.447715 82 1V7C82 7.55228 82.4477 8 83 8H87C87.5523 8 88 7.55228 88 7V1C88 0.447715 88.4477 0 89 0H121C121.552 0 122 0.447715 122 1V7C122 7.55228 122.448 8 123 8H127C127.552 8 128 7.55228 128 7V1C128 0.447715 128.448 0 129 0H161C161.552 0 162 0.447715 162 1V7C162 7.55228 162.448 8 163 8H169C169.552 8 170 8.44772 170 9V76C170 76.5523 169.552 77 169 77H1.00001C0.44772 77 0 76.5523 0 76V9C0 8.44772 0.447715 8 1 8H7C7.55228 8 8 7.55228 8 7V1C8 0.447715 8.44772 0 9 0H41C41.5523 0 42 0.447715 42 1V7Z" fill="#A6A6A6"/>
</svg>
